# xmcd
# 
# Track frame offsets:
#     150
#     13587
#     25150
#     35825
#     57230
#     80152
#     99257
#     110290
#     131132
#     147255
#     170595
#     192320
#     207315
#     218712
#     237585
#     255807
#     273705
#     286302
#     302990
#     335488
# 
# Disc length: 4654
# 
# Revision: 0
# Processed by: cddbd v1.5.2PL0 Copyright (c) Steve Scherf et al.
# Submitted via: fre:ac v1.0.17
# 
DISCID=2e122c14
DTITLE=James Cotton - Live And On The Move
DYEAR=0
DGENRE=Blues
TTITLE0=Cotton Boogie
TTITLE1=One More Mile
TTITLE2=All Walks Of Life
TTITLE3=Born In Missouri
TTITLE4=Flip, Flot and Fly
TTITLE5=Got My Mojo Workin
TTITLE6=Rocket 88
TTITLE7=Goodbye My Lady
TTITLE8=I Don't Know
TTITLE9=Caldonia
TTITLE10=Boogie Thing
TTITLE11=Good Morning Lil' School Girl
TTITLE12=Oh Baby You Don't Have To Go
TTITLE13=Help Me
TTITLE14=Fannie Mae
TTITLE15=Hot 'n Cold
TTITLE16=Teeny Weeny Bit
TTITLE17=Blow Wind Blow
TTITLE18=How Long Can A Fool Go Wrong
TTITLE19=Next Time You See Me
EXTD=
EXTT0=
EXTT1=
EXTT2=
EXTT3=
EXTT4=
EXTT5=
EXTT6=
EXTT7=
EXTT8=
EXTT9=
EXTT10=
EXTT11=
EXTT12=
EXTT13=
EXTT14=
EXTT15=
EXTT16=
EXTT17=
EXTT18=
EXTT19=
PLAYORDER=
